<svg height="100" viewBox="0 0 100 100" width="100" xmlns="http://www.w3.org/2000/svg"><path d="m0 0h100v100h-100z" fill="#3c5a5a"/><path d="m6.717 72.323c.745-5.887 5.394-10.634 9.9-14.032a62.693 62.693 0 0 1 5.251-3.53c-2.658-3.212-5.352-5.985-7.012-7.678-9.275-9.483-21.226-25.292-10.828-38.446 8.44-10.671 24.317-7.6 29.829 4.148 1.257 2.68-2.725 5.023-3.988 2.332-7.109-15.163-27.725-7.317-24.699 8.718 1.946 10.33 10.555 17.19 17.35 24.477 1.052 1.131 2.258 2.517 3.493 4.078q1.409-.759 2.821-1.482a41.522 41.522 0 0 0 8.2-5.33 54.954 54.954 0 0 1 -.523-9.849 2.335 2.335 0 0 1 3.476-2 9.017 9.017 0 0 1 3.5 11.666 11.567 11.567 0 0 1 -1.4 2.346 47.813 47.813 0 0 0 7.892 18.259c4.832-5.743 1.671-15.823 2.517-22.525.366-2.857 4.672-3.054 4.621 0-.093 5.29 4.34 17.252 10.9 8.047 1.974-2.779 2.309-9.467 2.478-12.563a47.038 47.038 0 0 0 -.526-10.117 65.374 65.374 0 0 0 -2.509-7.133 10.264 10.264 0 0 1 -6.238-2.3 4.647 4.647 0 0 1 1.778-8.3c3.949-1.156 6.486 1.873 8.137 5.363a15.475 15.475 0 0 0 3.952-1.122c.647-.363 1.5-1.117 2.225-1.62a43.653 43.653 0 0 0 4.033-3.3 44.19 44.19 0 0 0 8.921-10.43v7.894a49.612 49.612 0 0 1 -11.019 10.106 21.835 21.835 0 0 1 -6.4 3.035c.141.467.273.92.388 1.325a50.57 50.57 0 0 1 -.366 29.1c-3.445 10.6-11 9.571-15.879 4.05.048 6-.644 11.655-6.148 15.91a2.3 2.3 0 0 1 -2.8-.363 54.588 54.588 0 0 1 -9.855-19.735 69.99 69.99 0 0 1 -9.357 4.927c5.431 8.069 9.456 18.515.489 24.12a22.393 22.393 0 0 1 -11.378 3.125c-6.47 0-12.243-3.1-11.226-11.171zm5.662-2.728c-1.859 5-1.291 8.409 5.1 9.031a16.489 16.489 0 0 0 7.363-1.3c8.367-3.5 5.068-11.677-.11-18.886-4.388 2.607-10.52 6.213-12.353 11.155z" fill="#fafaf0" transform="translate(9.731 7.405)"/></svg>