<svg height="138" viewBox="0 0 183.495 138" width="183.495" xmlns="http://www.w3.org/2000/svg"><path d="m-55.806 1.815-2.154 1.452a12.274 12.274 0 0 0 1.884 2.733 9.142 9.142 0 0 0 2.692 2.053 7.322 7.322 0 0 0 3.341.774 7.421 7.421 0 0 0 2.549-.442 7.059 7.059 0 0 0 2.186-1.265 5.892 5.892 0 0 0 1.52-1.989 6.04 6.04 0 0 0 .554-2.621 5.825 5.825 0 0 0 -.538-2.61 6.3 6.3 0 0 0 -1.378-1.859 8.248 8.248 0 0 0 -1.821-1.279 15.393 15.393 0 0 0 -1.869-.821 16.27 16.27 0 0 1 -3.06-1.341 4.628 4.628 0 0 1 -1.6-1.453 3.168 3.168 0 0 1 -.475-1.689 2.756 2.756 0 0 1 .823-1.942 3.481 3.481 0 0 1 2.629-.868 4.446 4.446 0 0 1 2.2.505 5.212 5.212 0 0 1 1.536 1.295 9.093 9.093 0 0 1 1.045 1.61l2.312-1.326a8.927 8.927 0 0 0 -1.488-2.226 7.726 7.726 0 0 0 -2.3-1.737 6.912 6.912 0 0 0 -3.151-.679 7.224 7.224 0 0 0 -3.325.742 5.706 5.706 0 0 0 -2.28 2.037 5.355 5.355 0 0 0 -.814 2.931 5.151 5.151 0 0 0 .588 2.563 5.754 5.754 0 0 0 1.5 1.753 9.637 9.637 0 0 0 1.932 1.168q1.013.458 1.837.742a21.4 21.4 0 0 1 2.391.995 5.185 5.185 0 0 1 1.823 1.436 3.722 3.722 0 0 1 .7 2.368 3.222 3.222 0 0 1 -1.083 2.495 4.074 4.074 0 0 1 -2.85.979 4.89 4.89 0 0 1 -2.375-.568 6.469 6.469 0 0 1 -1.884-1.579 16.458 16.458 0 0 1 -1.597-2.337zm19.7-15.41v22.1h2.692v-22.1zm11.4 0-9.533 10.42 10.007 11.684h3.325l-10.07-11.746 9.6-10.357zm9.659 11.052a8.98 8.98 0 0 1 1.092-4.457 8.193 8.193 0 0 1 2.993-3.095 8.226 8.226 0 0 1 4.307-1.137 8.2 8.2 0 0 1 4.323 1.142 8.231 8.231 0 0 1 2.977 3.09 8.98 8.98 0 0 1 1.093 4.457 8.98 8.98 0 0 1 -1.093 4.453 8.231 8.231 0 0 1 -2.977 3.09 8.2 8.2 0 0 1 -4.323 1.141 8.226 8.226 0 0 1 -4.307-1.141 8.193 8.193 0 0 1 -2.993-3.09 8.98 8.98 0 0 1 -1.092-4.453zm-2.85 0a11.89 11.89 0 0 0 .839 4.484 10.793 10.793 0 0 0 2.358 3.616 11.019 11.019 0 0 0 3.579 2.4 11.371 11.371 0 0 0 4.465.868 11.338 11.338 0 0 0 4.481-.868 11.064 11.064 0 0 0 3.563-2.4 10.793 10.793 0 0 0 2.361-3.616 11.891 11.891 0 0 0 .839-4.484 11.855 11.855 0 0 0 -.839-4.5 10.831 10.831 0 0 0 -2.359-3.6 11.064 11.064 0 0 0 -3.563-2.4 11.338 11.338 0 0 0 -4.481-.868 11.371 11.371 0 0 0 -4.465.868 11.019 11.019 0 0 0 -3.579 2.4 10.831 10.831 0 0 0 -2.359 3.6 11.855 11.855 0 0 0 -.843 4.5zm39.745 2.369h7.379a9.217 9.217 0 0 1 -.9 2.431 7.885 7.885 0 0 1 -1.568 2.021 6.726 6.726 0 0 1 -2.264 1.374 8.438 8.438 0 0 1 -2.961.489 8.285 8.285 0 0 1 -4.244-1.105 8.192 8.192 0 0 1 -3.024-3.063 8.9 8.9 0 0 1 -1.124-4.516 8.883 8.883 0 0 1 1.124-4.531 8.226 8.226 0 0 1 3.024-3.047 8.285 8.285 0 0 1 4.244-1.105 9.239 9.239 0 0 1 4.4.995 7.288 7.288 0 0 1 2.914 2.763l1.9-1.737a9.324 9.324 0 0 0 -2.328-2.589 10.042 10.042 0 0 0 -3.1-1.579 12.694 12.694 0 0 0 -3.785-.537 11.746 11.746 0 0 0 -4.465.837 10.615 10.615 0 0 0 -3.579 2.368 10.793 10.793 0 0 0 -2.363 3.615 12.062 12.062 0 0 0 -.839 4.547 12.062 12.062 0 0 0 .839 4.543 10.793 10.793 0 0 0 2.359 3.62 10.615 10.615 0 0 0 3.579 2.368 11.746 11.746 0 0 0 4.465.837 10.478 10.478 0 0 0 4.513-.932 9.752 9.752 0 0 0 3.341-2.542 11.152 11.152 0 0 0 2.059-3.679 13.608 13.608 0 0 0 .7-4.373h-10.296zm18.242 1.989-2.154 1.452a12.273 12.273 0 0 0 1.885 2.733 9.142 9.142 0 0 0 2.692 2.053 7.322 7.322 0 0 0 3.341.774 7.421 7.421 0 0 0 2.546-.444 7.06 7.06 0 0 0 2.188-1.263 5.893 5.893 0 0 0 1.52-1.989 6.04 6.04 0 0 0 .554-2.621 5.825 5.825 0 0 0 -.538-2.61 6.3 6.3 0 0 0 -1.378-1.863 8.247 8.247 0 0 0 -1.821-1.279 15.393 15.393 0 0 0 -1.869-.821 16.271 16.271 0 0 1 -3.056-1.337 4.628 4.628 0 0 1 -1.6-1.453 3.168 3.168 0 0 1 -.475-1.689 2.756 2.756 0 0 1 .823-1.942 3.481 3.481 0 0 1 2.629-.868 4.446 4.446 0 0 1 2.2.505 5.212 5.212 0 0 1 1.536 1.295 9.092 9.092 0 0 1 1.045 1.61l2.312-1.326a8.927 8.927 0 0 0 -1.488-2.226 7.725 7.725 0 0 0 -2.3-1.737 6.912 6.912 0 0 0 -3.151-.679 7.224 7.224 0 0 0 -3.325.742 5.706 5.706 0 0 0 -2.28 2.037 5.355 5.355 0 0 0 -.818 2.931 5.152 5.152 0 0 0 .586 2.558 5.754 5.754 0 0 0 1.5 1.753 9.637 9.637 0 0 0 1.936 1.173q1.013.458 1.837.742a21.4 21.4 0 0 1 2.391.995 5.185 5.185 0 0 1 1.821 1.436 3.722 3.722 0 0 1 .7 2.368 3.222 3.222 0 0 1 -1.079 2.495 4.074 4.074 0 0 1 -2.85.979 4.89 4.89 0 0 1 -2.375-.568 6.47 6.47 0 0 1 -1.884-1.579 16.457 16.457 0 0 1 -1.601-2.337zm23.657-4.2 7.6 10.894h3.325l-7.916-10.894zm-3.959-11.21v22.1h2.692v-22.1zm1.488 2.368h4.529a5.939 5.939 0 0 1 2.518.505 3.985 3.985 0 0 1 1.71 1.453 4.13 4.13 0 0 1 .618 2.305 4.13 4.13 0 0 1 -.618 2.305 3.985 3.985 0 0 1 -1.71 1.453 5.939 5.939 0 0 1 -2.518.505h-4.528v2.369h4.529a8.858 8.858 0 0 0 3.848-.805 6.525 6.525 0 0 0 2.692-2.305 6.209 6.209 0 0 0 1-3.521 6.19 6.19 0 0 0 -1-3.537 6.567 6.567 0 0 0 -2.692-2.289 8.858 8.858 0 0 0 -3.848-.805h-4.529zm19.255-2.368v14.841a8.545 8.545 0 0 0 .523 3.031 6.754 6.754 0 0 0 1.52 2.4 7.065 7.065 0 0 0 2.391 1.579 8.758 8.758 0 0 0 6.207 0 7.065 7.065 0 0 0 2.391-1.579 6.755 6.755 0 0 0 1.52-2.4 8.545 8.545 0 0 0 .523-3.031v-14.841h-2.691v14.841a5.308 5.308 0 0 1 -1.235 3.663 5.385 5.385 0 0 1 -7.221 0 5.308 5.308 0 0 1 -1.235-3.663v-14.841zm26.223 7.168 7.221 12.883 7.225-12.883 1.647 14.936h2.692l-2.696-23.209-8.867 16.01-8.868-16.01-2.692 23.209h2.692z" fill="#445440" transform="translate(57.96 129.175)"/><g fill="none"><g transform="translate(45.804)"><g><path d="m45.8 0 45.8 91.609h-91.6z"/><path d="m45.80426788 4.47213745-42.56819915 85.13639832h85.13639831zm0-4.47213745 45.80426789 91.60853577h-91.60853577z" fill="#445440"/></g><g transform="translate(9.161 18.322)"><path d="m36.643 0 36.644 73.287h-73.287z"/><path d="m36.64341736 4.47212982-33.40735626 66.81469727h66.81469726zm0-4.47213745 36.64340973 73.28683472h-73.28683472z" fill="#445440"/></g><g stroke="#445440" stroke-width="2"><path d="m4 0h24.734" transform="translate(29.437 44.888)"/><g transform="translate(33.895 64.126)"><path d="m11.909 0a11.909 11.909 0 0 1 11.909 11.909v15.574a0 0 0 0 1 0 0h-23.818a0 0 0 0 1 0 0v-15.574a11.909 11.909 0 0 1 11.909-11.909z" stroke="none"/><path d="m11.909 1a10.909 10.909 0 0 1 10.909 10.909v14.574a0 0 0 0 1 0 0h-21.818a0 0 0 0 1 0 0v-14.574a10.909 10.909 0 0 1 10.909-10.909z" fill="none"/></g></g></g><path d="m0 90.692h183.217" stroke="#445440" stroke-width="2"/><g transform="translate(137.413 57.714)"><path d="m36.643 15.574h-36.643l10.382-15.574h15.879l10.381 15.572z"/><path d="m32.90608215 13.57354164-7.71546936-11.57353997h-13.73816871l-7.71546269 11.57353997zm3.73698044 2h-36.64305939l10.38205018-15.57353987h15.87895011z" fill="#445440"/></g><g transform="translate(146.574 27.483)"><path d="m9.161 0 9.161 18.322h-18.322z"/><path d="m9.16085434 4.47213459-5.92478466 11.84957027h11.84956932zm0-4.47213078 9.16085052 18.32170105h-18.32170105z" fill="#445440"/></g><g transform="translate(141.993 43.972)"><path d="m27.482 15.574h-27.482l9.344-15.574h8.794l9.343 15.572z"/><path d="m23.94999123 13.57354069-6.94379235-11.57353997h-6.52959346l-6.94420243 11.57353997zm3.53229141 2h-27.48228037l9.34423029-15.57353987h8.79438019z" fill="#445440"/></g><path d="m156.193 73.287v18.322" stroke="#445440" stroke-width="2"/><g transform="translate(9.161 57.714)"><path d="m36.643 15.574h-36.643l10.382-15.574h15.879l10.381 15.572z"/><path d="m32.90608215 13.57354164-7.71546936-11.57353997h-13.73816871l-7.71546269 11.57353997zm3.73698044 2h-36.64305939l10.38205018-15.57353987h15.87895011z" fill="#445440"/></g><g transform="translate(18.322 27.483)"><path d="m9.161 0 9.161 18.322h-18.322z"/><path d="m9.16085434 4.47213459-5.92478466 11.84957027h11.84956932zm0-4.47213078 9.16085052 18.32170105h-18.32170105z" fill="#445440"/></g><g transform="translate(13.741 43.972)"><path d="m27.482 15.574h-27.482l9.344-15.574h8.794l9.343 15.572z"/><path d="m23.94999123 13.57354069-6.94379235-11.57353997h-6.52959346l-6.94420243 11.57353997zm3.53229141 2h-27.48228037l9.34423029-15.57353987h8.79438019z" fill="#445440"/></g><path d="m27.941 73.287v18.322" stroke="#445440" stroke-width="2"/></g></svg>