<svg xmlns="http://www.w3.org/2000/svg" width="219" height="26.417" viewBox="0 0 219 26.417"><path d="M4.65-16.069v-17.8h7.187a8.032,8.032,0,0,1,3.415.638,4.644,4.644,0,0,1,2.03,1.708,4.371,4.371,0,0,1,.672,2.373,4.037,4.037,0,0,1-.844,2.579,4.494,4.494,0,0,1-2.366,1.509,4.846,4.846,0,0,1,1.8.754A4,4,0,0,1,17.8-22.927a3.924,3.924,0,0,1,.459,1.92,5.283,5.283,0,0,1-.295,1.714,4.228,4.228,0,0,1-1.015,1.6,5.125,5.125,0,0,1-1.961,1.18,9.338,9.338,0,0,1-3.12.446Zm3.237-2.825h3.9a3.417,3.417,0,0,0,2.27-.624,2.11,2.11,0,0,0,.72-1.68,2.124,2.124,0,0,0-.741-1.694,3.378,3.378,0,0,0-2.249-.638h-3.9Zm0-12.18v4.718H11.7a3.287,3.287,0,0,0,2.188-.638,2.177,2.177,0,0,0,.748-1.749,2.133,2.133,0,0,0-.734-1.694,3.231,3.231,0,0,0-2.174-.638Zm19.5,15.389a5.784,5.784,0,0,1-3.113-.878,6.377,6.377,0,0,1-2.263-2.462,7.73,7.73,0,0,1-.85-3.71,7.9,7.9,0,0,1,.844-3.772,6.036,6.036,0,0,1,2.256-2.414,6.022,6.022,0,0,1,3.127-.837,5.62,5.62,0,0,1,2.75.638,5.134,5.134,0,0,1,1.865,1.728,6.64,6.64,0,0,1,.953,2.462,8.6,8.6,0,0,1,.027,2.825H23.742v-1.756H30.7l-.631.411a5.959,5.959,0,0,0-.062-1.3,3.858,3.858,0,0,0-.391-1.207,2.3,2.3,0,0,0-.816-.885,2.476,2.476,0,0,0-1.351-.336,2.788,2.788,0,0,0-1.673.494,3.081,3.081,0,0,0-1.042,1.344,4.923,4.923,0,0,0-.357,1.92v1.289a5.461,5.461,0,0,0,.336,1.989,2.994,2.994,0,0,0,1,1.358,2.743,2.743,0,0,0,1.68.494,2.762,2.762,0,0,0,1.591-.439,2,2,0,0,0,.823-1.317h3.264a4.894,4.894,0,0,1-.967,2.27,5.189,5.189,0,0,1-1.968,1.536A6.49,6.49,0,0,1,27.391-15.685Zm18.05-.384-.411-3.237v-5.349a3.156,3.156,0,0,0-.569-2.071,2.406,2.406,0,0,0-1.927-.672,3.607,3.607,0,0,0-1.358.233,1.953,1.953,0,0,0-.885.665,1.758,1.758,0,0,0-.309,1.049H36.443a3.948,3.948,0,0,1,.727-2.462,4.166,4.166,0,0,1,2.092-1.4,10.6,10.6,0,0,1,3.271-.446,7.578,7.578,0,0,1,3.017.555,4.287,4.287,0,0,1,2,1.708,5.524,5.524,0,0,1,.713,2.949v8.476Zm-4.362.384a6.148,6.148,0,0,1-2.86-.6,4.177,4.177,0,0,1-1.721-1.57,4.076,4.076,0,0,1-.576-2.112,3.352,3.352,0,0,1,.665-2.119,4,4,0,0,1,1.886-1.289,8.642,8.642,0,0,1,2.88-.432,12.217,12.217,0,0,1,2.051.165,18.013,18.013,0,0,1,1.927.439v1.893a10.354,10.354,0,0,0-1.646-.384,11.036,11.036,0,0,0-1.673-.137,3.766,3.766,0,0,0-1.893.425,1.525,1.525,0,0,0-.741,1.44,1.65,1.65,0,0,0,.6,1.276,2.851,2.851,0,0,0,1.92.535,3.137,3.137,0,0,0,1.7-.439,3.009,3.009,0,0,0,1.063-1.1,2.7,2.7,0,0,0,.363-1.317H45.8a6.508,6.508,0,0,1-.535,2.654,4.531,4.531,0,0,1-1.584,1.941A4.455,4.455,0,0,1,41.079-15.685ZM61.872-29.428h3.237v13.359H61.872Zm-9.135,0h3.237v8.175a2.672,2.672,0,0,0,.645,1.954,2.377,2.377,0,0,0,1.769.652,3.2,3.2,0,0,0,1.749-.5A3.5,3.5,0,0,0,61.4-20.629a5.582,5.582,0,0,0,.473-2.435h.878a11.153,11.153,0,0,1-.631,4.046,5.18,5.18,0,0,1-1.742,2.4,4.292,4.292,0,0,1-2.565.8,6.331,6.331,0,0,1-2.579-.507,3.938,3.938,0,0,1-1.824-1.632,5.732,5.732,0,0,1-.672-2.963ZM74.71-15.685a5.228,5.228,0,0,1-2.16-.439,3.545,3.545,0,0,1-1.564-1.344,4.182,4.182,0,0,1-.583-2.3v-13.14H73.64v13.03q0,1.646,1.564,1.646a4.3,4.3,0,0,0,.96-.11,9.947,9.947,0,0,0,1.1-.329l.466,2.277q-.768.3-1.5.507A5.564,5.564,0,0,1,74.71-15.685ZM68.538-27.233v-2.14h8.723v2.14Zm14.388-4.581a2.058,2.058,0,0,1-1.474-.5,1.826,1.826,0,0,1-.528-1.392,1.836,1.836,0,0,1,.528-1.378,2.024,2.024,0,0,1,1.474-.514,2.029,2.029,0,0,1,1.468.514,1.823,1.823,0,0,1,.535,1.378,1.814,1.814,0,0,1-.535,1.392A2.063,2.063,0,0,1,82.926-31.814ZM81.308-16.069V-29.428h3.237v13.359Zm9.491,0V-30.991a4.388,4.388,0,0,1,.562-2.345,3.438,3.438,0,0,1,1.488-1.337,4.692,4.692,0,0,1,2.009-.432,10.383,10.383,0,0,1,1.385.1q.713.1,1.385.233L97-32.281a5.12,5.12,0,0,0-.713-.2,3.572,3.572,0,0,0-.713-.075,1.858,1.858,0,0,0-.727.144,1.206,1.206,0,0,0-.562.5,1.851,1.851,0,0,0-.219.974v14.868ZM88.824-27.233v-2.14H96.5v2.14Zm20.148-2.195h3.237v13.359h-3.237Zm-9.135,0h3.237v8.175a2.672,2.672,0,0,0,.645,1.954,2.377,2.377,0,0,0,1.769.652,3.2,3.2,0,0,0,1.749-.5,3.5,3.5,0,0,0,1.262-1.481,5.582,5.582,0,0,0,.473-2.435h.878a11.153,11.153,0,0,1-.631,4.046,5.18,5.18,0,0,1-1.742,2.4,4.292,4.292,0,0,1-2.565.8,6.331,6.331,0,0,1-2.579-.507,3.938,3.938,0,0,1-1.824-1.632,5.732,5.732,0,0,1-.672-2.963Zm17.474,13.359V-34.887h3.237v18.818Zm19.792.384a5.228,5.228,0,0,1-2.16-.439,3.545,3.545,0,0,1-1.564-1.344,4.182,4.182,0,0,1-.583-2.3v-13.14h3.237v13.03q0,1.646,1.564,1.646a4.3,4.3,0,0,0,.96-.11,9.946,9.946,0,0,0,1.1-.329l.466,2.277q-.768.3-1.5.507A5.564,5.564,0,0,1,137.1-15.685Zm-6.172-11.549v-2.14h8.723v2.14Zm21.63,11.165v-7.791a3.141,3.141,0,0,0-.713-2.236,2.449,2.449,0,0,0-1.865-.754,2.882,2.882,0,0,0-1.721.535,3.488,3.488,0,0,0-1.173,1.612,7.344,7.344,0,0,0-.425,2.681h-1.07a12.413,12.413,0,0,1,.645-4.314,5.384,5.384,0,0,1,1.824-2.572,4.612,4.612,0,0,1,2.771-.85,4.863,4.863,0,0,1,2.75.734,4.475,4.475,0,0,1,1.66,2.064,8,8,0,0,1,.555,3.1v7.791Zm-9.135,0V-34.887h3.237v18.818Zm18.983-15.746a2.058,2.058,0,0,1-1.474-.5,1.826,1.826,0,0,1-.528-1.392,1.836,1.836,0,0,1,.528-1.378,2.024,2.024,0,0,1,1.474-.514,2.029,2.029,0,0,1,1.468.514,1.823,1.823,0,0,1,.535,1.378,1.814,1.814,0,0,1-.535,1.392A2.063,2.063,0,0,1,162.409-31.814ZM160.79-16.069V-29.428h3.237v13.359Zm17.858,0v-7.791a3.141,3.141,0,0,0-.713-2.236,2.449,2.449,0,0,0-1.865-.754,2.882,2.882,0,0,0-1.721.535,3.488,3.488,0,0,0-1.173,1.612,7.344,7.344,0,0,0-.425,2.681h-1.07a12.414,12.414,0,0,1,.645-4.314,5.384,5.384,0,0,1,1.824-2.572,4.612,4.612,0,0,1,2.771-.85,4.863,4.863,0,0,1,2.75.734,4.475,4.475,0,0,1,1.66,2.064,8,8,0,0,1,.555,3.1v7.791Zm-9.135,0v-13.3h2.825l.411,2.633v10.671Zm22.22,6.885a10.833,10.833,0,0,1-3.916-.631,6.044,6.044,0,0,1-2.489-1.653,3.364,3.364,0,0,1-.864-2.215,2.579,2.579,0,0,1,1.029-2.188,4.187,4.187,0,0,1,2.592-.775l2.359.878a3.591,3.591,0,0,0-2.071.507,1.627,1.627,0,0,0-.727,1.413,1.7,1.7,0,0,0,1.09,1.516,6.545,6.545,0,0,0,3,.569,6.37,6.37,0,0,0,2.4-.411,3.944,3.944,0,0,0,1.57-1.07,2.137,2.137,0,0,0,.555-1.4,1.072,1.072,0,0,0-.329-.809,1.421,1.421,0,0,0-1.015-.315h-4.471A6.666,6.666,0,0,1,188-16.2a4.478,4.478,0,0,1-1.756-1.166A2.408,2.408,0,0,1,185.589-19a2.314,2.314,0,0,1,.466-1.447,2.976,2.976,0,0,1,1.269-.94,4.713,4.713,0,0,1,1.8-.329l.823,1.07a1.892,1.892,0,0,0-.761.158,1.489,1.489,0,0,0-.6.459,1.2,1.2,0,0,0-.233.754,1.059,1.059,0,0,0,.466.892,2.835,2.835,0,0,0,1.618.343h4.471a6.129,6.129,0,0,1,3.34.782,2.656,2.656,0,0,1,1.214,2.4,4.566,4.566,0,0,1-.946,2.736,6.882,6.882,0,0,1-2.681,2.119A9.5,9.5,0,0,1,191.733-9.183Zm.165-11a6.883,6.883,0,0,1-2.887-.6,5.2,5.2,0,0,1-2.092-1.666,4.139,4.139,0,0,1-.782-2.51,4.244,4.244,0,0,1,.782-2.551,5.051,5.051,0,0,1,2.092-1.666,7.022,7.022,0,0,1,2.887-.583,6.873,6.873,0,0,1,2.839.583,5.161,5.161,0,0,1,2.1,1.666,4.193,4.193,0,0,1,.8,2.551,4.091,4.091,0,0,1-.8,2.51,5.316,5.316,0,0,1-2.1,1.666A6.738,6.738,0,0,1,191.9-20.183Zm.027-2.249a2.371,2.371,0,0,0,1.893-.727,2.644,2.644,0,0,0,.631-1.8,2.642,2.642,0,0,0-.638-1.852,2.462,2.462,0,0,0-1.913-.7,2.474,2.474,0,0,0-1.893.7,2.592,2.592,0,0,0-.658,1.852,2.562,2.562,0,0,0,.665,1.8A2.463,2.463,0,0,0,191.925-22.433Zm4.691-5.185-1.481-.85a3.9,3.9,0,0,1,.555-2.092,3.836,3.836,0,0,1,1.481-1.392,4.288,4.288,0,0,1,2.051-.494l-.165,3.1a3.267,3.267,0,0,0-1.817.418A1.465,1.465,0,0,0,196.616-27.617Zm10.918,11.933a9.226,9.226,0,0,1-3.3-.528,4.618,4.618,0,0,1-2.119-1.522,3.961,3.961,0,0,1-.754-2.393h2.99a1.65,1.65,0,0,0,.782,1.44,3.852,3.852,0,0,0,2.016.453,3.481,3.481,0,0,0,1.241-.206,2.013,2.013,0,0,0,.844-.562,1.2,1.2,0,0,0,.3-.8,1.069,1.069,0,0,0-.4-.885,4.06,4.06,0,0,0-1.3-.6l-2.908-1.042a5.858,5.858,0,0,1-2.4-1.481A3.148,3.148,0,0,1,201.691-26a3.155,3.155,0,0,1,1.529-2.723,7.193,7.193,0,0,1,4.094-1.036,6.154,6.154,0,0,1,3.943,1.118,3.6,3.6,0,0,1,1.433,2.832h-3.045a1.386,1.386,0,0,0-.631-1.042,3.039,3.039,0,0,0-1.7-.384,2.722,2.722,0,0,0-1.612.418,1.2,1.2,0,0,0-.583.981q0,.946,1.618,1.426l3.155,1.18a6.291,6.291,0,0,1,2.387,1.344,2.778,2.778,0,0,1,.85,2.085,3.265,3.265,0,0,1-.706,2,5.1,5.1,0,0,1-1.968,1.529A6.83,6.83,0,0,1,207.534-15.685Zm10.177-2.935a2.741,2.741,0,0,1,.816-2.03,2.88,2.88,0,0,1,2.119-.809,3,3,0,0,1,2.153.809,2.685,2.685,0,0,1,.85,2.03,2.62,2.62,0,0,1-.85,2.009,3.043,3.043,0,0,1-2.153.789,2.907,2.907,0,0,1-2.119-.8A2.68,2.68,0,0,1,217.711-18.62Z" transform="translate(-4.65 35.6)" fill="#374642"/></svg>