<svg xmlns="http://www.w3.org/2000/svg" width="219" height="52.56" viewBox="0 0 219 52.56"><g transform="translate(-58.759 -89.345)"><path d="M5.069-29.51,1.925-27.29A10.241,10.241,0,0,0,3.9-24.485a9.437,9.437,0,0,0,2.975,2.05,9.018,9.018,0,0,0,3.684.755,8.86,8.86,0,0,0,2.82-.447,7.955,7.955,0,0,0,2.42-1.295,6.06,6.06,0,0,0,1.7-2.081,6.188,6.188,0,0,0,.616-2.805,6.281,6.281,0,0,0-.447-2.451,5.72,5.72,0,0,0-1.233-1.849,8.289,8.289,0,0,0-1.757-1.341,12.339,12.339,0,0,0-2.019-.925,21.981,21.981,0,0,1-2.713-1.094,5.192,5.192,0,0,1-1.6-1.14,2.068,2.068,0,0,1-.524-1.4,1.859,1.859,0,0,1,.647-1.4,2.765,2.765,0,0,1,1.942-.6,3.876,3.876,0,0,1,1.757.385,4.913,4.913,0,0,1,1.372,1.017,6.96,6.96,0,0,1,1.033,1.4l3.452-1.911a8.929,8.929,0,0,0-1.557-2.2,8.014,8.014,0,0,0-2.5-1.757,8.4,8.4,0,0,0-3.56-.694,8.769,8.769,0,0,0-3.622.724,6.079,6.079,0,0,0-2.558,2.065,5.415,5.415,0,0,0-.94,3.19,5.516,5.516,0,0,0,.586,2.635,6.253,6.253,0,0,0,1.48,1.849,8.81,8.81,0,0,0,1.9,1.233q1,.478,1.772.755,1.449.555,2.451,1.033a4.35,4.35,0,0,1,1.51,1.094,2.486,2.486,0,0,1,.509,1.634,2.258,2.258,0,0,1-.832,1.849,3.307,3.307,0,0,1-2.158.678,4.69,4.69,0,0,1-2.127-.493,6.2,6.2,0,0,1-1.8-1.387A11.377,11.377,0,0,1,5.069-29.51ZM21.714-44.274v22.591h4.531V-44.274Zm12.545,0L24.951-33.609,34.26-21.68l5.826,0L30.222-33.732l9.4-10.542Zm9.617,11.22a7.615,7.615,0,0,1,.863-3.668,6.538,6.538,0,0,1,2.373-2.528,6.594,6.594,0,0,1,3.514-.925,6.653,6.653,0,0,1,3.545.925,6.316,6.316,0,0,1,2.343,2.528,7.845,7.845,0,0,1,.832,3.668,7.727,7.727,0,0,1-.848,3.668,6.426,6.426,0,0,1-2.358,2.528,6.594,6.594,0,0,1-3.514.925,6.594,6.594,0,0,1-3.514-.925,6.538,6.538,0,0,1-2.373-2.528A7.615,7.615,0,0,1,43.877-33.054Zm-4.654,0a12.048,12.048,0,0,0,.832,4.516,10.661,10.661,0,0,0,2.373,3.622,10.854,10.854,0,0,0,3.622,2.389,12.022,12.022,0,0,0,4.577.848,12.022,12.022,0,0,0,4.577-.848,10.687,10.687,0,0,0,3.606-2.389,10.973,10.973,0,0,0,2.373-3.622,11.855,11.855,0,0,0,.848-4.516,11.706,11.706,0,0,0-.848-4.516,10.486,10.486,0,0,0-2.4-3.56,10.9,10.9,0,0,0-3.622-2.327,12.215,12.215,0,0,0-4.531-.817,12.249,12.249,0,0,0-4.516.817A10.7,10.7,0,0,0,42.49-41.13a10.789,10.789,0,0,0-2.4,3.56A11.522,11.522,0,0,0,39.222-33.054ZM51.768-48.4a2.117,2.117,0,0,0,.709,1.634,2.428,2.428,0,0,0,1.7.647,2.373,2.373,0,0,0,1.68-.647,2.139,2.139,0,0,0,.694-1.634,2.091,2.091,0,0,0-.694-1.618,2.406,2.406,0,0,0-1.68-.632,2.461,2.461,0,0,0-1.7.632A2.07,2.07,0,0,0,51.768-48.4Zm-7.09,0a2.117,2.117,0,0,0,.709,1.634,2.428,2.428,0,0,0,1.7.647,2.373,2.373,0,0,0,1.68-.647,2.139,2.139,0,0,0,.694-1.634,2.091,2.091,0,0,0-.694-1.618,2.406,2.406,0,0,0-1.68-.632,2.461,2.461,0,0,0-1.7.632A2.07,2.07,0,0,0,44.678-48.4ZM80.8-44.274V-30.65L65.454-44.274v22.591h4.254v-13.19l15.35,13.19V-44.274ZM92.733-27.167h11.405l-.524-3.483H93.257Zm5.641-8.856,3.237,6.668-.062,1.11,3.253,6.563h4.77l-11.2-22.591L87.432-21.683h4.621l3.177-6.748-.092-.986Zm22.171,6.514L117.4-27.29a10.241,10.241,0,0,0,1.973,2.805,9.437,9.437,0,0,0,2.975,2.05,9.018,9.018,0,0,0,3.684.755,8.86,8.86,0,0,0,2.82-.447,7.955,7.955,0,0,0,2.42-1.295,6.06,6.06,0,0,0,1.7-2.081,6.188,6.188,0,0,0,.616-2.805,6.281,6.281,0,0,0-.447-2.451,5.72,5.72,0,0,0-1.233-1.849,8.289,8.289,0,0,0-1.757-1.341,12.34,12.34,0,0,0-2.019-.925,21.979,21.979,0,0,1-2.713-1.094,5.192,5.192,0,0,1-1.6-1.14,2.068,2.068,0,0,1-.524-1.4,1.859,1.859,0,0,1,.647-1.4,2.765,2.765,0,0,1,1.942-.6,3.876,3.876,0,0,1,1.757.385,4.913,4.913,0,0,1,1.372,1.017,6.959,6.959,0,0,1,1.033,1.4l3.452-1.911a8.928,8.928,0,0,0-1.557-2.2,8.014,8.014,0,0,0-2.5-1.757,8.4,8.4,0,0,0-3.56-.694,8.769,8.769,0,0,0-3.622.724,6.079,6.079,0,0,0-2.558,2.065,5.415,5.415,0,0,0-.94,3.19,5.516,5.516,0,0,0,.586,2.635,6.253,6.253,0,0,0,1.48,1.849,8.81,8.81,0,0,0,1.9,1.233q1,.478,1.772.755,1.449.555,2.451,1.033a4.35,4.35,0,0,1,1.51,1.094,2.486,2.486,0,0,1,.509,1.634,2.258,2.258,0,0,1-.832,1.849,3.307,3.307,0,0,1-2.158.678,4.69,4.69,0,0,1-2.127-.493,6.2,6.2,0,0,1-1.8-1.387A11.378,11.378,0,0,1,120.545-29.51ZM136.8-40.3h5.795v18.615H147V-40.3h5.826v-3.975H136.8Zm37.359-3.976v22.591h4.5V-44.274Zm7.336,22.591a12.664,12.664,0,0,0,5.934-1.328,9.667,9.667,0,0,0,3.961-3.744,13.4,13.4,0,0,0,1.418-6.3,12.78,12.78,0,0,0-1.418-6.148,9.681,9.681,0,0,0-3.961-3.749,12.663,12.663,0,0,0-5.934-1.323h-4.5v4.007h4.346a9.147,9.147,0,0,1,2.682.387,6,6,0,0,1,2.219,1.216,5.674,5.674,0,0,1,1.495,2.113,10.293,10.293,0,0,1,.539,3.5,11.225,11.225,0,0,1-.539,3.648,5.674,5.674,0,0,1-1.495,2.113,6,6,0,0,1-2.219,1.216,9.148,9.148,0,0,1-2.682.387h-4.346v4.007Z" transform="translate(84.955 140)" fill="#1a1a1a"/><path d="M2.856-26.417v13.136H9.147v-.952H3.862V-26.417Zm8.047,0v13.136h1.006V-26.417Zm13.772,0v10.562l-9.73-10.562v13.136h1.006v-10.56l9.73,10.56V-26.417Zm4.042,0v13.136h1.006V-26.417Zm6.31,0-5.6,6.183L35.3-13.281h1.28l-5.907-6.971,5.633-6.165ZM37.7-19.85a5.863,5.863,0,0,1,.686-2.862,5.149,5.149,0,0,1,1.884-1.975A5.19,5.19,0,0,1,43-25.41a5.19,5.19,0,0,1,2.734.722,5.082,5.082,0,0,1,1.875,1.975,5.927,5.927,0,0,1,.677,2.862A5.941,5.941,0,0,1,47.609-17a5.065,5.065,0,0,1-1.875,1.984A5.19,5.19,0,0,1,43-14.29a5.19,5.19,0,0,1-2.734-.722A5.132,5.132,0,0,1,38.382-17,5.877,5.877,0,0,1,37.7-19.85Zm-1.061,0a7,7,0,0,0,.476,2.606,6.3,6.3,0,0,0,1.335,2.085,6.114,6.114,0,0,0,2.021,1.381A6.406,6.406,0,0,0,43-13.284a6.407,6.407,0,0,0,2.533-.494,6.114,6.114,0,0,0,2.021-1.381,6.3,6.3,0,0,0,1.335-2.085,7,7,0,0,0,.476-2.606,7,7,0,0,0-.476-2.606,6.3,6.3,0,0,0-1.335-2.085,6.114,6.114,0,0,0-2.021-1.381A6.407,6.407,0,0,0,43-26.416a6.407,6.407,0,0,0-2.533.494,6.114,6.114,0,0,0-2.021,1.381,6.3,6.3,0,0,0-1.335,2.085A7,7,0,0,0,36.636-19.85Zm7.572-8.577a.657.657,0,0,0,.21.494.681.681,0,0,0,.485.2.642.642,0,0,0,.485-.2.688.688,0,0,0,.192-.494.666.666,0,0,0-.192-.476.642.642,0,0,0-.485-.2.681.681,0,0,0-.485.2A.637.637,0,0,0,44.207-28.427Zm-3.8,0a.657.657,0,0,0,.21.494.681.681,0,0,0,.485.2.642.642,0,0,0,.485-.2.688.688,0,0,0,.192-.494.666.666,0,0,0-.192-.476.642.642,0,0,0-.485-.2.681.681,0,0,0-.485.2A.637.637,0,0,0,40.4-28.427Zm11.3,2.01v13.136h1.006V-26.417Zm.567,1h2.432a3.482,3.482,0,0,1,2.286.723,2.579,2.579,0,0,1,.878,2.113,2.58,2.58,0,0,1-.878,2.1,3.454,3.454,0,0,1-2.286.734H52.273v.953h2.432a4.944,4.944,0,0,0,2.149-.448,3.536,3.536,0,0,0,1.491-1.311,3.687,3.687,0,0,0,.549-2.029,3.63,3.63,0,0,0-.549-2.029,3.638,3.638,0,0,0-1.491-1.3,4.877,4.877,0,0,0-2.149-.51H52.273Zm8.925-1v13.131H62.2V-26.417Zm13.772,0v10.562l-9.73-10.562v13.136h1.006V-23.839l9.73,10.558V-26.417Zm10.059,7.537h4.591a5.356,5.356,0,0,1-.476,1.756,5.2,5.2,0,0,1-1.015,1.463,4.6,4.6,0,0,1-1.491,1.006,4.907,4.907,0,0,1-1.939.366A5.206,5.206,0,0,1,81.983-15a5.216,5.216,0,0,1-1.9-1.966,5.778,5.778,0,0,1-.7-2.881,5.765,5.765,0,0,1,.7-2.89A5.213,5.213,0,0,1,81.992-24.7,5.22,5.22,0,0,1,84.7-25.41a5.363,5.363,0,0,1,2.707.658A4.861,4.861,0,0,1,89.2-23.032l.732-.64a5.985,5.985,0,0,0-1.317-1.472,5.679,5.679,0,0,0-1.747-.942,6.765,6.765,0,0,0-2.167-.329,6.512,6.512,0,0,0-2.533.485,6.166,6.166,0,0,0-2.03,1.363,6.109,6.109,0,0,0-1.344,2.085,7.123,7.123,0,0,0-.476,2.634,7.123,7.123,0,0,0,.476,2.634,6.109,6.109,0,0,0,1.344,2.085,6.166,6.166,0,0,0,2.03,1.363,6.512,6.512,0,0,0,2.533.485,5.807,5.807,0,0,0,2.524-.53,5.712,5.712,0,0,0,1.9-1.445,6.294,6.294,0,0,0,1.189-2.094,7.623,7.623,0,0,0,.4-2.478H85.028Z" transform="translate(98.837 155.187)" fill="#1a1a1a"/><path d="M159.8-42.163h11.4l-.524-3.483H160.321Zm5.641-8.856,3.237,6.668-.062,1.11,3.253,6.563h4.77l-11.2-22.591L154.495-36.679h4.621l3.177-6.748-.092-.986Z" transform="translate(80.183 154.996)" fill="#1a1a1a"/><path d="M67.84,100.73H63.779l23.112,46.18h4.061Z" transform="translate(-5.02 -5.004)" fill="#1a1a1a"/></g></svg>