<svg height="125.958" viewBox="0 0 120 125.958" width="120" xmlns="http://www.w3.org/2000/svg"><g fill="#0e1010"><path d="m415.949 206.671a.689.689 0 1 0 .687.689.689.689 0 0 0 -.687-.689z" transform="translate(-355.552 -175.715)"/><path d="m415.788 195.173a.775.775 0 1 0 .775.775.776.776 0 0 0 -.775-.775z" transform="translate(-355.391 -168.266)"/><path d="m415.63 183.675a.862.862 0 1 0 .861.862.862.862 0 0 0 -.861-.862z" transform="translate(-355.233 -160.816)"/><path d="m415.473 172.179a.947.947 0 1 0 .947.947.947.947 0 0 0 -.947-.947z" transform="translate(-355.076 -153.368)"/><path d="m415.312 160.681a1.034 1.034 0 1 0 1.033 1.035 1.035 1.035 0 0 0 -1.033-1.035z" transform="translate(-354.915 -145.919)"/><path d="m426.035 140.559s3.611 1.41 5.3-4c1.714-5.468 3.847-6.753 6.283-4.489 0 0-.572-3.019-4.569-2.2s-4.161 5.549-4.407 8.242-2.117 2.288-2.607 2.447z" transform="translate(-362.538 -125.865)"/><path d="m401.976 125.854c.674 3.3 1.958 4.407 1.958 4.407a10.524 10.524 0 0 1 1.551-9.3 10.522 10.522 0 0 1 1.55 9.3s1.284-1.108 1.957-4.407 2.041-2.891 2.857-3.24c0 0-2.448-.512-3.51.548 0 0-.653-3.345-2.854-4.406-2.2 1.061-2.856 4.406-2.856 4.406-1.061-1.06-3.509-.548-3.509-.548.815.349 2.18-.057 2.856 3.24z" transform="translate(-345.088 -118.755)"/><path d="m415.949 387.066a.689.689 0 1 0 -.689-.689.688.688 0 0 0 .689.689z" transform="translate(-355.552 -291.699)"/><path d="m415.788 398.247a.775.775 0 1 0 -.776-.775.775.775 0 0 0 .776.775z" transform="translate(-355.391 -298.831)"/><path d="m415.63 409.425a.862.862 0 1 0 -.862-.862.861.861 0 0 0 .862.862z" transform="translate(-355.233 -305.961)"/><path d="m415.473 420.606a.948.948 0 1 0 -.947-.947.948.948 0 0 0 .947.947z" transform="translate(-355.076 -313.094)"/><path d="m415.313 431.785a1.034 1.034 0 1 0 -1.034-1.034 1.034 1.034 0 0 0 1.034 1.034z" transform="translate(-354.917 -320.225)"/><path d="m431.339 438.445c-1.694-5.409-5.3-4-5.3-4 .49.163 2.367-.245 2.611 2.448s.408 7.427 4.407 8.243 4.569-2.2 4.569-2.2c-2.44 2.264-4.572.977-6.287-4.491z" transform="translate(-362.538 -323.181)"/><path d="m408.991 448.21c-.675-3.3-1.957-4.407-1.957-4.407a10.524 10.524 0 0 1 -1.551 9.3 10.524 10.524 0 0 1 -1.551-9.3s-1.283 1.109-1.958 4.407-2.04 2.891-2.857 3.24c0 0 2.449.513 3.51-.547 0 0 .652 3.345 2.856 4.406 2.2-1.062 2.855-4.406 2.855-4.406 1.062 1.06 3.51.547 3.51.547-.817-.35-2.183.057-2.857-3.24z" transform="translate(-345.086 -329.351)"/><path d="m381.733 136.56c1.7 5.409 5.3 4 5.3 4-.49-.163-2.366.244-2.612-2.449s-.408-7.426-4.406-8.242-4.569 2.2-4.569 2.2c2.44-2.262 4.573-.977 6.287 4.491z" transform="translate(-329.741 -125.865)"/><path d="m387.037 434.446s-3.609-1.411-5.3 4c-1.714 5.468-3.847 6.754-6.283 4.49 0 0 .571 3.018 4.569 2.2s4.161-5.55 4.406-8.243 2.119-2.284 2.608-2.447z" transform="translate(-329.741 -323.181)"/><path d="m363.7 206.977c-1.97-3.175-4.64-5.155-8.52-4.845-3 .241-6.2 3.528-4.706 6.633.34.707 2.065.469 1.687-.317-1.208-2.516 1.4-5.252 3.91-5.133a6.564 6.564 0 0 1 5.325 3.09 12.721 12.721 0 0 1 2.19 5.4c-.134-.223-.278-.439-.431-.647-.8-1.078-2.171-2.469-3.683-2.006-1.884.576-4.954 4.551-1.576 5.208.422.082 1.384-1.185 1.16-1.229a1.522 1.522 0 0 1 -1.121-2.343c.589-1.116 2.32-.174 2.947.425a8.77 8.77 0 0 1 2.614 5.592 14.492 14.492 0 0 1 -.4 1.585c-2.6 8.209-13.22 13.019-20.542 7.811a7.676 7.676 0 0 0 4.636-.757c1.667-.84 3.842-2.521 4.23-4.491.257-1.3.185-3.028-.972-3.928a2.364 2.364 0 0 0 -3.075-.124c-1.331 1.151-2.953 3.33-1.593 5.035.045.056 1.327-1.1 1.172-1.3a2.354 2.354 0 0 1 -.344-2.3c.242-.666.382-.8 1.2-.663a2.482 2.482 0 0 1 1.155.4 3.885 3.885 0 0 1 1.162 4.491c-.818 1.917-4.311 2.632-6.131 2.418a7.968 7.968 0 0 1 -5.032-2.314 3.341 3.341 0 0 1 -.3-.352 21.237 21.237 0 0 1 -3.709-8.038 9.4 9.4 0 0 1 1.014-6.345 6.99 6.99 0 0 1 1.93-2.165c.49-.332 1.968-1.287 2.608-.81 2.666 1.983 1.86 6.912-2 6.343-1.072-.158.512.354.811.4 1.929.284 4.179-.136 4.444-2.466a4.069 4.069 0 0 0 -2.5-4.392 5.136 5.136 0 0 0 -5.336.73 7.587 7.587 0 0 0 -1.546 1.814 19.477 19.477 0 0 1 .594-3.546 25.321 25.321 0 0 1 1.922-5.023c.1-.224.2-.383.325-.618.35-.638.73-1.258 1.135-1.863 1.851-2.247 4.443-3.991 7.468-3.893 2.46.08 6.378 1.238 6.8 4.163.342 2.368-1.846 4.093-4.073 4.04-.959-.023-2.393-.314-2.669-1.436-.234-.949.432-1.256 1.291-1.3.79-.038 1.356-1.645.363-1.6-2.434.117-4.525 3.212-2.187 5.056 2.594 2.046 6.8.417 8.159-2.345 1.808-3.668-1.013-6.869-4.577-7.79a10.152 10.152 0 0 0 -6.622.484c1.7-1.585 3.582-2.945 5.286-4.519a6.891 6.891 0 0 0 2.357-3.529c.808-4.009-6.367-5-6.55-.726-.034.82 1.713.837 1.748.008a1.512 1.512 0 0 1 2.819-.843c1.561 2.358-2.544 4.955-3.929 6.1a39.69 39.69 0 0 0 -6.656 6.815c0-.013 0-.03 0-.042-.1-2-.881-3.689-2.856-4.418-1.479-.546-4.5-.512-3.891 1.889.337 1.325 2.234 2.52 3.33 1.337.149-.161-1.264-1.072-1.594-.715a1.007 1.007 0 0 1 -.1.1 1.666 1.666 0 0 1 .64-1.882c1.581-.739 2.484.446 2.741 1.877a10.223 10.223 0 0 1 .016 3.287c-.035.239-.139 1.011-.253 1.511-.034.131-.086.23-.129.355a22.047 22.047 0 0 0 -2.1 5.6c-.078.336-.142.677-.2 1.02a27.824 27.824 0 0 0 -10.386-17.541c.385.106.773.2 1.166.284 5.565 1.134 13.127.635 16.617-4.563 1.859-2.768 3.122-6.637 1.68-9.859a9.183 9.183 0 0 0 -12.087-4.526 4.439 4.439 0 0 1 -2.565.214 1.526 1.526 0 0 1 -1.014-1.392 1.553 1.553 0 0 1 .2-.916.731.731 0 0 1 .026.105c.094.3 1.762-.055 1.745-.112-.318-1.009-2.127-.833-2.883-.419a1.59 1.59 0 0 0 -.184 2.685 5.229 5.229 0 0 0 3.774.343 5.3 5.3 0 0 0 -2.407 4.731c-.17 1.913-.239 4.517-1.654 5.836-1.533 1.428-4.315 1.971-4.53-.872a2.644 2.644 0 0 1 .779-2.332 2.757 2.757 0 0 1 1.553-.648h.026c.212.74-.08 1.856-.884 1.961.185-.024 1.032.844 1.493.784.679-.089 1.088-.951 1.051-1.582-.044-.756-.52-1.087-1.148-1.416-2.058-1.079-5.187-.039-4.382 2.8a5.029 5.029 0 0 0 5.037 3.309c2.675-.365 3.529-2.428 3.922-4.684 2.3 2.527 7.013 2.5 7.934-1.785.075-.347-1.635-.46-1.746.059-.439 2.042-1.878 3.683-3.925 2.171a4.512 4.512 0 0 1 -1.73-4.542 5.123 5.123 0 0 1 6.1-4.391 8.385 8.385 0 0 1 5.68 4.524c1.57 3.506.246 8.078-2.318 10.8a12.7 12.7 0 0 1 -10.147 3.551c-7.358-.449-14.073-5.3-15.136-12.922-.528-3.789-.606-8.955 3.005-11.33 4.375-2.876 6.858 3.646 2.467 4.51-1.1.217.427.61.9.517 1.449-.285 3.018-1.2 3.212-2.816a3.038 3.038 0 0 0 -2.087-3.262 7.049 7.049 0 0 0 -8.955 4.836 17.131 17.131 0 0 0 2.222 14.051 16.294 16.294 0 0 0 1.928 2.192 27.738 27.738 0 0 0 -19.791.051 16.294 16.294 0 0 0 1.98-2.242 17.13 17.13 0 0 0 2.222-14.051 7.049 7.049 0 0 0 -8.955-4.836 3.037 3.037 0 0 0 -2.087 3.262c.194 1.621 1.763 2.531 3.212 2.816.472.093 2-.3.9-.517-4.392-.864-1.908-7.387 2.467-4.51 3.612 2.375 3.533 7.541 3.005 11.33-1.063 7.622-7.777 12.473-15.136 12.922a12.7 12.7 0 0 1 -10.147-3.551c-2.564-2.72-3.888-7.292-2.318-10.8a8.384 8.384 0 0 1 5.681-4.524 5.123 5.123 0 0 1 6.1 4.391 4.513 4.513 0 0 1 -1.731 4.542c-2.046 1.512-3.485-.129-3.924-2.171-.112-.519-1.821-.406-1.747-.059.921 4.288 5.635 4.312 7.934 1.785.393 2.256 1.247 4.319 3.922 4.684a5.029 5.029 0 0 0 5.037-3.309c.8-2.843-2.324-3.883-4.382-2.8-.628.329-1.1.66-1.148 1.416-.037.632.372 1.493 1.051 1.582.462.06 1.308-.808 1.493-.784-.8-.1-1.1-1.221-.884-1.961h.026a2.757 2.757 0 0 1 1.553.648 2.644 2.644 0 0 1 .78 2.332c-.216 2.843-3 2.3-4.531.872-1.415-1.318-1.483-3.922-1.654-5.836a5.3 5.3 0 0 0 -2.407-4.731 5.228 5.228 0 0 0 3.773-.343 1.59 1.59 0 0 0 -.184-2.685c-.755-.415-2.565-.59-2.883.419-.018.057 1.651.409 1.745.112a.807.807 0 0 1 .026-.105 1.553 1.553 0 0 1 .2.916 1.526 1.526 0 0 1 -1.014 1.392 4.441 4.441 0 0 1 -2.565-.214 9.182 9.182 0 0 0 -12.086 4.526c-1.443 3.221-.18 7.09 1.679 9.859 3.49 5.2 11.052 5.7 16.617 4.563.432-.088.859-.2 1.283-.317a27.823 27.823 0 0 0 -10.447 17.796q-.106-.621-.245-1.229a22.06 22.06 0 0 0 -2.1-5.6c-.043-.125-.1-.224-.129-.355-.114-.5-.218-1.272-.253-1.511a10.233 10.233 0 0 1 .016-3.287c.257-1.431 1.16-2.617 2.741-1.877a1.535 1.535 0 0 1 .713 1.518 1.513 1.513 0 0 1 -.074.364 1.057 1.057 0 0 1 -.1-.1c-.331-.357-1.744.554-1.595.715 1.1 1.183 2.993-.012 3.331-1.337.611-2.4-2.413-2.435-3.891-1.889-1.975.729-2.757 2.413-2.856 4.418v.042a39.687 39.687 0 0 0 -6.656-6.815c-1.385-1.147-5.489-3.744-3.929-6.1a1.511 1.511 0 0 1 2.819.843c.036.828 1.783.811 1.748-.008-.183-4.272-7.358-3.283-6.551.726a6.892 6.892 0 0 0 2.358 3.529c1.7 1.575 3.583 2.935 5.286 4.519a10.151 10.151 0 0 0 -6.622-.484c-3.564.92-6.385 4.122-4.577 7.79 1.362 2.762 5.565 4.391 8.159 2.345 2.338-1.844.247-4.939-2.187-5.056-.993-.047-.427 1.56.363 1.6.858.041 1.525.348 1.291 1.3-.277 1.121-1.711 1.413-2.669 1.436-2.227.053-4.415-1.673-4.073-4.04.423-2.925 4.34-4.083 6.8-4.163 3.025-.1 5.617 1.646 7.468 3.893q.608.907 1.135 1.863c.122.235.226.393.325.618a25.365 25.365 0 0 1 1.922 5.023 19.543 19.543 0 0 1 .594 3.546 7.578 7.578 0 0 0 -1.546-1.814 5.136 5.136 0 0 0 -5.336-.73 4.068 4.068 0 0 0 -2.495 4.392c.265 2.331 2.515 2.75 4.444 2.466.3-.044 1.883-.556.812-.4-3.862.569-4.668-4.36-2-6.343.64-.477 2.119.478 2.608.81a6.987 6.987 0 0 1 1.93 2.165 9.4 9.4 0 0 1 1.014 6.345 21.236 21.236 0 0 1 -3.709 8.038 3.3 3.3 0 0 1 -.3.352 7.968 7.968 0 0 1 -5.032 2.314c-1.82.214-5.313-.5-6.131-2.418a3.886 3.886 0 0 1 1.162-4.491 2.483 2.483 0 0 1 1.155-.4c.817-.135.957 0 1.2.663a2.353 2.353 0 0 1 -.345 2.3c-.154.193 1.128 1.353 1.173 1.3 1.36-1.706-.261-3.885-1.593-5.035a2.364 2.364 0 0 0 -3.075.124c-1.157.9-1.229 2.627-.973 3.928.388 1.969 2.563 3.65 4.23 4.491a7.675 7.675 0 0 0 4.636.757c-7.322 5.208-17.945.4-20.542-7.811a14.458 14.458 0 0 1 -.4-1.585 8.772 8.772 0 0 1 2.614-5.592c.627-.6 2.359-1.542 2.948-.425a1.522 1.522 0 0 1 -1.121 2.343c-.225.044.737 1.311 1.16 1.229 3.378-.658.308-4.632-1.577-5.208-1.512-.462-2.882.928-3.683 2.006-.154.208-.3.424-.431.647a12.716 12.716 0 0 1 2.19-5.4 6.565 6.565 0 0 1 5.325-3.09c2.514-.118 5.118 2.617 3.91 5.133-.377.786 1.348 1.024 1.687.317 1.491-3.105-1.7-6.392-4.706-6.633-3.88-.311-6.551 1.67-8.52 4.845-2.014 3.248-2.09 7.189-1.3 10.834.844 3.884 3.577 6.956 6.8 9.129 6.4 4.307 14.322 3.223 19.636-2.273q.283-.293.552-.6c.136-.142.231-.269.335-.387a22.4 22.4 0 0 0 4.7-10.534 27.838 27.838 0 0 0 11.661 18.98 19.412 19.412 0 0 0 -4.6-1.9 25 25 0 0 0 -9.391-.506 8.25 8.25 0 0 1 .093-1.52c.2-1.265 1.875-4.591 3.189-2.269.346.613 1.854-.27 1.5-.889-1-1.768-3.385-1.02-4.616.062a6.382 6.382 0 0 0 -1.709 3.9 8.532 8.532 0 0 0 -.059.963c-.88.158-1.75.352-2.605.582-.4.122-.782.2-1.058.268a14.807 14.807 0 0 0 -4.486 1.926c-1.082.632-2.112 1.327-3.25 1.926a6.971 6.971 0 0 1 -4.636.558c-1.993-.568-1.789-4.386.578-2.691.417.3 1.908-.343 1.6-.566-2.019-1.445-5.715-.7-5.186 2.318.54 3.079 6.1 1.663 7.871 1.044a6.149 6.149 0 0 0 .744-.32c-.212.275-.416.558-.608.855-1.454 2.253-1.716 5.183.243 7.208a5.046 5.046 0 0 0 5.549.811c2.263-.972 2.324-3.388 1.345-5.316-.322-.634-1.874.17-1.55.807.6 1.178 1.143 3.1-.5 3.67a3.739 3.739 0 0 1 -3.941-1.556c-3-4.156 2.47-8.984 6.054-9.951.365-.1.684-.19 1.089-.309.508-.14.9-.2 1.4-.315.452-.1.909-.191 1.367-.27a12.412 12.412 0 0 0 3.435 7.344c5.11 5.541 12.358 5.723 18.977 3.58.147.306.173.355.3.667a4.245 4.245 0 0 1 .244.877c.379 2.4.288 4.987-1.453 6.929-1.031 1.15-3.331.317-4.1-.647a2.424 2.424 0 0 1 -.308-1.959c.052.016.108.033.174.05a2.113 2.113 0 0 1 .614.93c.067.145 1.62-.64 1.511-.879-.8-1.763-2.362-1.251-3.484-.066a2.624 2.624 0 0 0 -.018 2.8c.615 1.122 2.18 1.217 3.269 1.07a5.48 5.48 0 0 0 4.784-4.143 14.16 14.16 0 0 1 -.478 4.841c-1.335 4.805-5.36 8.835-10.472 8.96a14.694 14.694 0 0 1 -7.956-2.231 3.364 3.364 0 0 1 -1.045-3.654 2.76 2.76 0 0 1 2-1.6c1.323-.264.906 1.4.427 2.168-.09.143 1.412 1.033 1.533.839 1.721-2.755-2.836-4.924-4.83-3.163a2.553 2.553 0 0 0 -.312 3.762 7.975 7.975 0 0 1 -2.629-6.273 5.867 5.867 0 0 1 .273-1.467 7.91 7.91 0 0 1 .424-1.026c.271-.505 1.414-2.026 2.046-2.071a3.022 3.022 0 0 1 2.5.926c.256.368 1.893-.14 1.6-.565-.68-.978-2.288-1.088-3.372-1.112a4.259 4.259 0 0 0 -2.808 1.175c-.15-1.639-.988-3.179-2.757-3.261-.638-.029.1 1.514.723 1.543 1.281.059 1.04 2.212.7 3-.041.1-.109.251-.2.442a7 7 0 0 0 -.67 4.943c1.231 6.069 9.262 8.822 14.723 8.327 7.623-.692 12.828-7.719 12.306-15.192a14.893 14.893 0 0 0 -1.553-5.546 42.258 42.258 0 0 0 7.338-3.831 43.38 43.38 0 0 0 7.261 3.831 14.911 14.911 0 0 0 -1.553 5.546c-.521 7.473 4.683 14.5 12.306 15.192 5.461.5 13.492-2.258 14.723-8.327a7 7 0 0 0 -.67-4.943c-.089-.191-.157-.346-.2-.442-.337-.785-.578-2.938.7-3 .627-.029 1.362-1.572.723-1.543-1.77.081-2.607 1.622-2.758 3.261a4.258 4.258 0 0 0 -2.808-1.175c-1.084.024-2.692.134-3.372 1.112-.3.425 1.341.933 1.6.565a3.021 3.021 0 0 1 2.5-.926c.633.045 1.775 1.566 2.046 2.071a7.926 7.926 0 0 1 .424 1.026 5.887 5.887 0 0 1 .274 1.467 7.976 7.976 0 0 1 -2.629 6.273 2.553 2.553 0 0 0 -.312-3.762c-1.995-1.761-6.551.408-4.83 3.163.121.194 1.622-.7 1.533-.839-.479-.767-.9-2.432.427-2.168a2.76 2.76 0 0 1 2 1.6 3.364 3.364 0 0 1 -1.044 3.654 14.7 14.7 0 0 1 -7.953 2.217c-5.112-.125-9.137-4.154-10.472-8.96a14.157 14.157 0 0 1 -.479-4.841 5.48 5.48 0 0 0 4.784 4.143c1.089.148 2.654.052 3.269-1.07a2.624 2.624 0 0 0 -.018-2.8c-1.122-1.184-2.681-1.7-3.484.066-.108.239 1.445 1.024 1.511.879a2.114 2.114 0 0 1 .614-.93c.066-.017.122-.034.174-.05a2.423 2.423 0 0 1 -.309 1.959c-.772.964-3.072 1.8-4.1.647-1.741-1.942-1.832-4.532-1.453-6.929a4.242 4.242 0 0 1 .244-.877c.128-.313.154-.361.3-.667 6.618 2.143 13.866 1.96 18.977-3.58a12.41 12.41 0 0 0 3.435-7.344c.458.079.915.166 1.367.27.506.115.9.175 1.4.315.405.119.724.21 1.089.309 3.585.967 9.059 5.795 6.054 9.951a3.738 3.738 0 0 1 -3.941 1.556c-1.646-.57-1.1-2.492-.5-3.67.323-.638-1.229-1.441-1.551-.807-.979 1.928-.918 4.344 1.346 5.316a5.046 5.046 0 0 0 5.549-.811c1.959-2.025 1.7-4.955.243-7.208-.191-.3-.4-.579-.607-.855a6.1 6.1 0 0 0 .744.32c1.772.618 7.331 2.035 7.871-1.044.53-3.019-3.166-3.763-5.186-2.318-.311.223 1.18.864 1.6.566 2.368-1.7 2.572 2.122.579 2.691a6.972 6.972 0 0 1 -4.636-.558c-1.138-.6-2.168-1.295-3.25-1.926a14.8 14.8 0 0 0 -4.486-1.926c-.276-.071-.655-.146-1.057-.268-.855-.23-1.725-.425-2.6-.582a8.475 8.475 0 0 0 -.059-.963 6.385 6.385 0 0 0 -1.71-3.9c-1.231-1.082-3.615-1.831-4.616-.062-.35.619 1.158 1.5 1.5.889 1.314-2.322 2.99 1 3.189 2.269a8.282 8.282 0 0 1 .093 1.52 25 25 0 0 0 -9.392.506 19.265 19.265 0 0 0 -4.3 1.738 27.841 27.841 0 0 0 11.4-18.582 22.333 22.333 0 0 0 4.653 10.3c.1.119.2.245.335.387.18.2.363.4.552.6 5.314 5.5 13.24 6.58 19.636 2.273 3.227-2.173 5.96-5.245 6.8-9.129.788-3.647.712-7.588-1.302-10.836zm-82.935 31.688a12.894 12.894 0 0 1 -4.828-6.86 8.852 8.852 0 0 1 -.265-1.392 20.588 20.588 0 0 1 12.319 2.291 20.926 20.926 0 0 1 7.98 7.923c-5.117 1.551-10.539 1.442-15.207-1.962zm16.914 1.38a21.331 21.331 0 0 0 -6.162-6.7 27.609 27.609 0 0 0 12.156 3.721 33.965 33.965 0 0 1 -5.994 2.978zm37.582-9.631a8.94 8.94 0 0 1 -.261 1.386 12.9 12.9 0 0 1 -4.828 6.86c-4.667 3.4-10.089 3.513-15.206 1.961a20.928 20.928 0 0 1 7.979-7.923 20.589 20.589 0 0 1 12.316-2.285zm-22.007 9.631a34.011 34.011 0 0 1 -5.979-2.979 27.6 27.6 0 0 0 11.864-3.523 21.243 21.243 0 0 0 -5.884 6.501zm-7.75-3.68a27.046 27.046 0 0 1 -14.028-50.173q.76-.381 1.481-.832a26.955 26.955 0 0 1 24.759-.171 17.269 17.269 0 0 0 2.044 1.15 27.042 27.042 0 0 1 -14.26 50.025z" transform="translate(-245.466 -146.672)"/><path d="m388.005 272.548a3.959 3.959 0 0 1 -2.15-.765l.267-1.167h.1a2.186 2.186 0 0 0 1.992 1.373 1.9 1.9 0 0 0 1.956-1.907c0-.936-.68-1.385-1.531-1.737-1.154-.45-2.539-.875-2.539-2.5 0-1.664 1.276-2.467 2.818-2.467a2.792 2.792 0 0 1 1.932.644l-.365 1.057h-.121a1.567 1.567 0 0 0 -1.592-1.142 1.586 1.586 0 0 0 -1.677 1.543c0 1.142.948 1.446 1.968 1.846 1.057.425 2.163 1.021 2.163 2.491-.001 1.892-1.507 2.731-3.221 2.731z" transform="translate(-336.488 -212.453)"/><path d="m410.2 272.378-1.36-3.5h-3.3l-1.349 3.5h-.935l4.082-9h.291l3.924 9zm-3.025-7.435-1.422 3.377h2.9z" transform="translate(-347.766 -212.453)"/><path d="m428.052 272.691h-.778l-3.79-8.832h1.2l3.2 7.375h.134l2.782-7.375h.911z" transform="translate(-360.885 -212.767)"/><path d="m359.553 306.285h-.984l-2.308-7.277h-.109l-2.527 7.277h-.935l-2.733-8.832h1.154l2.308 7.423h.109l2.5-7.423h.923l2.381 7.423h.122l2.32-7.423h.863z" transform="translate(-313.212 -234.547)"/><path d="m390.278 306.285v-8.832h1.167v8.832z" transform="translate(-339.355 -234.547)"/><path d="m406 306.285-6.536-6.816v6.816h-.753v-8.832h.34l6.537 6.8v-6.8h.741v8.832z" transform="translate(-344.822 -234.547)"/><path d="m425.662 306.285v-8.832h4.726v.607h-3.56v3.2h3.172v.607h-3.171v3.815h3.56v.607z" transform="translate(-362.297 -234.547)"/><path d="m448.454 306.285-3.475-4.362h-.219v4.362h-1.16v-8.832h2.976c2.15 0 2.831.875 2.831 2.029 0 1.519-1.494 2.138-3.05 2.333l3.621 4.471zm-1.908-8.334h-1.786v3.475h1.057c1.13 0 2.418-.6 2.418-1.944a1.483 1.483 0 0 0 -1.688-1.531z" transform="translate(-373.924 -234.547)"/><path d="m466.187 302.179v4.106h-1.166v-3.718l-3.183-5.115h1.262l2.7 4.264 2.491-4.264h.935z" transform="translate(-385.751 -234.547)"/></g></svg>