<svg xmlns="http://www.w3.org/2000/svg" width="72" height="72.004" viewBox="0 0 72 72.004"><path d="M837.5,322.882s-.944-1.482-1.6-.827-.151,1.72-.151,1.72a33.67,33.67,0,0,1,3.7,15.45,34.031,34.031,0,1,1-34.031-34.031,33.652,33.652,0,0,1,15.573,3.765c3.87,2.046,8.107,5.209,6.573,10.135a15.337,15.337,0,0,1-4.688,6.455,18.45,18.45,0,0,1-1.715,1.405c-.305.215-.67.535-.945.689a6.565,6.565,0,0,1-1.68.476c-.7-1.483-1.78-2.77-3.458-2.28a1.975,1.975,0,0,0-.758,3.528,4.364,4.364,0,0,0,2.652.978,27.98,27.98,0,0,1,1.067,3.032,20.027,20.027,0,0,1,.223,4.3c-.072,1.316-.214,4.159-1.053,5.339-2.788,3.913-4.672-1.171-4.633-3.42.022-1.3-1.809-1.215-1.964,0-.36,2.849.984,7.134-1.07,9.575a20.321,20.321,0,0,1-3.354-7.76,4.921,4.921,0,0,0,.595-1,3.833,3.833,0,0,0-1.49-4.959.992.992,0,0,0-1.478.848,23.322,23.322,0,0,0,.222,4.187,17.639,17.639,0,0,1-3.483,2.266q-.6.307-1.2.629c-.524-.663-1.037-1.253-1.485-1.733-2.888-3.1-6.548-6.013-7.375-10.4-1.286-6.819,7.477-10.152,10.5-3.706.537,1.143,2.23.148,1.7-.991-2.343-4.994-9.092-6.3-12.679-1.763-4.42,5.591.66,12.311,4.6,16.342.7.72,1.851,1.9,2.98,3.264a26.768,26.768,0,0,0-2.233,1.5c-1.916,1.445-3.892,3.463-4.208,5.965-.7,5.556,6.172,5.569,9.608,3.419,3.811-2.382,2.1-6.822-.209-10.252a29.751,29.751,0,0,0,3.977-2.094,23.207,23.207,0,0,0,4.189,8.389.978.978,0,0,0,1.19.154c2.34-1.808,2.634-4.213,2.613-6.762,2.074,2.346,5.285,2.784,6.75-1.722a21.5,21.5,0,0,0,.155-12.367c-.049-.172-.106-.365-.166-.564a9.243,9.243,0,0,0,2.721-1.29,21.065,21.065,0,0,0,6.732-7.359c3.229-6.371-1.251-11.254-6.754-14.158-.016-.008-.031-.012-.047-.02l0-.006a36,36,0,1,0,19.5,32A35.616,35.616,0,0,0,837.5,322.882Zm-38.64,31.106a7.019,7.019,0,0,1-3.13.551c-2.717-.265-2.958-1.713-2.169-3.839.78-2.1,3.386-3.632,5.25-4.739,2.2,3.064,3.6,6.54.047,8.027Z" transform="translate(-769.412 -303.221)" fill="#fafaf0"/></svg>